{
	"asset":{
		"extensions":{
			"ASOBO_normal_map_convention":{
				"tangent_space_convention":"DirectX"
			}
		},
		"generator":"Khronos glTF Blender I/O v3.5.30 and Asobo Studio MSFS Blender I/O v1.3.0",
		"version":"2.0"
	},
	"extensionsUsed":[
		"ASOBO_normal_map_convention"
	],
	"scene":0,
	"scenes":[
		{
			"name":"Scene",
			"nodes":[
				1
			]
		}
	],
	"nodes":[
		{
			"mesh":0,
			"name":"node3",
			"rotation":[
				0,
				-0.4993284046649933,
				0,
				0.8664128184318542
			]
		},
		{
			"children":[
				0
			],
			"name":"node0"
		}
	],
	"materials":[
		{
			"doubleSided":true,
			"emissiveFactor":[
				1,
				1,
				1
			],
			"emissiveTexture":{
				"index":0
			},
			"name":"m2mat",
			"pbrMetallicRoughness":{
				"baseColorTexture":{
					"index":1
				},
				"metallicFactor":0,
				"roughnessFactor":0.5
			}
		}
	],
	"meshes":[
		{
			"name":"meshId2_name",
			"primitives":[
				{
					"attributes":{
						"POSITION":0,
						"TEXCOORD_0":1,
						"NORMAL":2
					},
					"indices":3,
					"material":0
				}
			]
		}
	],
	"textures":[
		{
			"sampler":0,
			"source":0
		},
		{
			"sampler":0,
			"source":1
		}
	],
	"images":[
		{
			"mimeType":"image/png",
			"name":"domestic_tm_lm",
			"uri":"domestic_tm_lm.png"
		},
		{
			"mimeType":"image/png",
			"name":"domestic_tm",
			"uri":"domestic_tm.png"
		}
	],
	"accessors":[
		{
			"bufferView":0,
			"componentType":5126,
			"count":8418,
			"max":[
				119.50726318359375,
				31.58745002746582,
				92.615478515625
			],
			"min":[
				-122.57269287109375,
				-7.999999797903001e-05,
				-72.072509765625
			],
			"type":"VEC3"
		},
		{
			"bufferView":1,
			"componentType":5126,
			"count":8418,
			"type":"VEC2"
		},
		{
			"bufferView":2,
			"componentType":5126,
			"count":8418,
			"type":"VEC3"
		},
		{
			"bufferView":3,
			"componentType":5123,
			"count":9933,
			"type":"SCALAR"
		}
	],
	"bufferViews":[
		{
			"buffer":0,
			"byteLength":101016,
			"byteOffset":0,
			"target":34962
		},
		{
			"buffer":0,
			"byteLength":67344,
			"byteOffset":101016,
			"target":34962
		},
		{
			"buffer":0,
			"byteLength":101016,
			"byteOffset":168360,
			"target":34962
		},
		{
			"buffer":0,
			"byteLength":19866,
			"byteOffset":269376,
			"target":34963
		}
	],
	"samplers":[
		{
			"magFilter":9729,
			"minFilter":9987
		}
	],
	"buffers":[
		{
			"byteLength":289244,
			"uri":"domestic_terminal.bin"
		}
	]
}
