{
	"asset":{
		"extensions":{
			"ASOBO_normal_map_convention":{
				"tangent_space_convention":"DirectX"
			}
		},
		"generator":"Khronos glTF Blender I/O v3.5.30 and Asobo Studio MSFS Blender I/O v1.3.0",
		"version":"2.0"
	},
	"extensionsUsed":[
		"ASOBO_normal_map_convention",
		"ASOBO_unique_id",
		"ASOBO_macro_light"
	],
	"scene":0,
	"scenes":[
		{
			"name":"Scene",
			"nodes":[
				0,
				1,
				2,
				3,
				4,
				5,
				6,
				7
			]
		}
	],
	"nodes":[
		{
			"extensions":{
				"ASOBO_unique_id":{
					"id":"Spot"
				},
				"ASOBO_macro_light":{
					"color":[
						1,
						0.8215743899345398,
						0.35741180181503296
					],
					"intensity":1000,
					"cone_angle":360,
					"has_symmetry":true,
					"flash_frequency":0,
					"flash_duration":0,
					"flash_phase":0,
					"rotation_speed":0,
					"day_night_cycle":true
				}
			},
			"name":"Spot",
			"rotation":[
				-0.5442336201667786,
				-0.28389376401901245,
				-0.22251750528812408,
				-0.7574298977851868
			],
			"scale":[
				3.101067304611206,
				3.101067066192627,
				3.101066827774048
			],
			"translation":[
				2.0380001068115234,
				22.927337646484375,
				0.9607711434364319
			]
		},
		{
			"extensions":{
				"ASOBO_unique_id":{
					"id":"Spot.001"
				},
				"ASOBO_macro_light":{
					"color":[
						1,
						0.8215743899345398,
						0.35741180181503296
					],
					"intensity":1000,
					"cone_angle":360,
					"has_symmetry":true,
					"flash_frequency":0,
					"flash_duration":0,
					"flash_phase":0,
					"rotation_speed":0,
					"day_night_cycle":true
				}
			},
			"name":"Spot.001",
			"rotation":[
				-0.39575526118278503,
				-0.12685543298721313,
				-0.12088260799646378,
				-0.9014837145805359
			],
			"scale":[
				3.101067066192627,
				3.101067066192627,
				3.101066827774048
			],
			"translation":[
				0.7726888060569763,
				22.969940185546875,
				2.295776128768921
			]
		},
		{
			"extensions":{
				"ASOBO_unique_id":{
					"id":"Spot.002"
				},
				"ASOBO_macro_light":{
					"color":[
						1,
						0.8215743899345398,
						0.35741180181503296
					],
					"intensity":1000,
					"cone_angle":360,
					"has_symmetry":true,
					"flash_frequency":0,
					"flash_duration":0,
					"flash_phase":0,
					"rotation_speed":0,
					"day_night_cycle":true
				}
			},
			"name":"Spot.002",
			"rotation":[
				-0.3854984641075134,
				0.10494261980056763,
				0.06811850517988205,
				-0.9141870141029358
			],
			"scale":[
				3.101067304611206,
				3.101066827774048,
				3.101067066192627
			],
			"translation":[
				-0.8606119155883789,
				22.927337646484375,
				2.1251349449157715
			]
		},
		{
			"extensions":{
				"ASOBO_unique_id":{
					"id":"Spot.003"
				},
				"ASOBO_macro_light":{
					"color":[
						1,
						0.8215743899345398,
						0.35741180181503296
					],
					"intensity":1000,
					"cone_angle":360,
					"has_symmetry":true,
					"flash_frequency":0,
					"flash_duration":0,
					"flash_phase":0,
					"rotation_speed":0,
					"day_night_cycle":true
				}
			},
			"name":"Spot.003",
			"rotation":[
				-0.7264614105224609,
				-0.3235071003437042,
				-0.21139056980609894,
				-0.568252682685852
			],
			"scale":[
				3.101067304611206,
				3.101067066192627,
				3.101067066192627
			],
			"translation":[
				2.1738040447235107,
				22.927337646484375,
				-0.8707854747772217
			]
		},
		{
			"extensions":{
				"ASOBO_unique_id":{
					"id":"Spot.004"
				},
				"ASOBO_macro_light":{
					"color":[
						1,
						0.8215743899345398,
						0.35741180181503296
					],
					"intensity":1000,
					"cone_angle":360,
					"has_symmetry":true,
					"flash_frequency":0,
					"flash_duration":0,
					"flash_phase":0,
					"rotation_speed":0,
					"day_night_cycle":true
				}
			},
			"name":"Spot.004",
			"rotation":[
				-0.8943963050842285,
				-0.15364223718643188,
				-0.05236409232020378,
				-0.416782408952713
			],
			"scale":[
				3.101067066192627,
				3.101067066192627,
				3.101067066192627
			],
			"translation":[
				0.9399303197860718,
				22.927337646484375,
				-2.118910312652588
			]
		},
		{
			"extensions":{
				"ASOBO_unique_id":{
					"id":"top"
				}
			},
			"mesh":0,
			"name":"top"
		},
		{
			"extensions":{
				"ASOBO_unique_id":{
					"id":"pole"
				}
			},
			"mesh":1,
			"name":"pole"
		},
		{
			"extensions":{
				"ASOBO_unique_id":{
					"id":"lightandbottom"
				}
			},
			"mesh":2,
			"name":"lightandbottom"
		}
	],
	"materials":[
		{
			"doubleSided":true,
			"name":"m0mat",
			"pbrMetallicRoughness":{
				"baseColorFactor":[
					0.5058820247650146,
					0.5058820247650146,
					0.5058820247650146,
					1
				],
				"metallicFactor":0,
				"roughnessFactor":0.5
			}
		},
		{
			"doubleSided":true,
			"name":"m1mat",
			"pbrMetallicRoughness":{
				"baseColorFactor":[
					0.9215689897537231,
					0.9215689897537231,
					0.9215689897537231,
					1
				],
				"metallicFactor":0,
				"roughnessFactor":0.5
			}
		},
		{
			"doubleSided":true,
			"emissiveFactor":[
				1,
				1,
				1
			],
			"emissiveTexture":{
				"index":0
			},
			"name":"m2mat",
			"pbrMetallicRoughness":{
				"baseColorTexture":{
					"index":1
				},
				"metallicFactor":0,
				"roughnessFactor":0.5
			}
		}
	],
	"meshes":[
		{
			"name":"meshId0_name",
			"primitives":[
				{
					"attributes":{
						"POSITION":0,
						"TEXCOORD_0":1,
						"NORMAL":2
					},
					"indices":3,
					"material":0
				}
			]
		},
		{
			"name":"meshId1_name",
			"primitives":[
				{
					"attributes":{
						"POSITION":4,
						"TEXCOORD_0":5,
						"NORMAL":6
					},
					"indices":7,
					"material":1
				}
			]
		},
		{
			"name":"meshId2_name",
			"primitives":[
				{
					"attributes":{
						"POSITION":8,
						"TEXCOORD_0":9,
						"NORMAL":10
					},
					"indices":11,
					"material":2
				}
			]
		}
	],
	"textures":[
		{
			"sampler":0,
			"source":0
		},
		{
			"sampler":0,
			"source":1
		}
	],
	"images":[
		{
			"mimeType":"image/png",
			"name":"gh_structure3_lm",
			"uri":"gh_structure3_lm.png"
		},
		{
			"mimeType":"image/png",
			"name":"gh_structure3",
			"uri":"gh_structure3.png"
		}
	],
	"accessors":[
		{
			"bufferView":0,
			"componentType":5126,
			"count":102,
			"max":[
				2.083860397338867,
				22.63364028930664,
				2.0752131938934326
			],
			"min":[
				-2.104433059692383,
				22.533199310302734,
				-2.1020166873931885
			],
			"type":"VEC3"
		},
		{
			"bufferView":1,
			"componentType":5126,
			"count":102,
			"type":"VEC2"
		},
		{
			"bufferView":2,
			"componentType":5126,
			"count":102,
			"type":"VEC3"
		},
		{
			"bufferView":3,
			"componentType":5123,
			"count":288,
			"type":"SCALAR"
		},
		{
			"bufferView":4,
			"componentType":5126,
			"count":12,
			"max":[
				0.3198833465576172,
				23.007400512695312,
				0.28210318088531494
			],
			"min":[
				-0.3148212432861328,
				-0.03553000092506409,
				-0.2881668210029602
			],
			"type":"VEC3"
		},
		{
			"bufferView":5,
			"componentType":5126,
			"count":12,
			"type":"VEC2"
		},
		{
			"bufferView":6,
			"componentType":5126,
			"count":12,
			"type":"VEC3"
		},
		{
			"bufferView":7,
			"componentType":5123,
			"count":36,
			"type":"SCALAR"
		},
		{
			"bufferView":8,
			"componentType":5126,
			"count":368,
			"max":[
				2.413572311401367,
				23.14430046081543,
				2.386073350906372
			],
			"min":[
				-1.3307514190673828,
				-0.035590000450611115,
				-2.378896713256836
			],
			"type":"VEC3"
		},
		{
			"bufferView":9,
			"componentType":5126,
			"count":368,
			"type":"VEC2"
		},
		{
			"bufferView":10,
			"componentType":5126,
			"count":368,
			"type":"VEC3"
		},
		{
			"bufferView":11,
			"componentType":5123,
			"count":600,
			"type":"SCALAR"
		}
	],
	"bufferViews":[
		{
			"buffer":0,
			"byteLength":1224,
			"byteOffset":0,
			"target":34962
		},
		{
			"buffer":0,
			"byteLength":816,
			"byteOffset":1224,
			"target":34962
		},
		{
			"buffer":0,
			"byteLength":1224,
			"byteOffset":2040,
			"target":34962
		},
		{
			"buffer":0,
			"byteLength":576,
			"byteOffset":3264,
			"target":34963
		},
		{
			"buffer":0,
			"byteLength":144,
			"byteOffset":3840,
			"target":34962
		},
		{
			"buffer":0,
			"byteLength":96,
			"byteOffset":3984,
			"target":34962
		},
		{
			"buffer":0,
			"byteLength":144,
			"byteOffset":4080,
			"target":34962
		},
		{
			"buffer":0,
			"byteLength":72,
			"byteOffset":4224,
			"target":34963
		},
		{
			"buffer":0,
			"byteLength":4416,
			"byteOffset":4296,
			"target":34962
		},
		{
			"buffer":0,
			"byteLength":2944,
			"byteOffset":8712,
			"target":34962
		},
		{
			"buffer":0,
			"byteLength":4416,
			"byteOffset":11656,
			"target":34962
		},
		{
			"buffer":0,
			"byteLength":1200,
			"byteOffset":16072,
			"target":34963
		}
	],
	"samplers":[
		{
			"magFilter":9729,
			"minFilter":9987
		}
	],
	"buffers":[
		{
			"byteLength":17272,
			"uri":"lightpole.bin"
		}
	]
}
