{
    "asset" : {
        "extensions" : {
            "ASOBO_normal_map_convention" : {
                "tangent_space_convention" : "DirectX"
            }
        },
        "generator" : "Khronos glTF Blender I/O v3.3.36 and Asobo Studio MSFS Blender I/O v1.3.0",
        "version" : "2.0"
    },
    "extensionsUsed" : [
        "ASOBO_normal_map_convention"
    ],
    "scene" : 0,
    "scenes" : [
        {
            "name" : "Scene",
            "nodes" : [
                0,
                1,
                2,
                3,
                4
            ]
        }
    ],
    "nodes" : [
        {
            "mesh" : 0,
            "name" : "node1"
        },
        {
            "mesh" : 1,
            "name" : "wall"
        },
        {
            "mesh" : 2,
            "name" : "node3"
        },
        {
            "mesh" : 3,
            "name" : "node4"
        },
        {
            "mesh" : 4,
            "name" : "node5"
        }
    ],
    "materials" : [
        {
            "doubleSided" : true,
            "emissiveFactor" : [
                1,
                1,
                1
            ],
            "emissiveTexture" : {
                "index" : 0
            },
            "name" : "m1mat",
            "pbrMetallicRoughness" : {
                "baseColorTexture" : {
                    "index" : 1
                },
                "metallicFactor" : 0,
                "roughnessFactor" : 0.5
            }
        },
        {
            "doubleSided" : true,
            "name" : "m4mat",
            "pbrMetallicRoughness" : {
                "baseColorTexture" : {
                    "index" : 2
                },
                "metallicFactor" : 0,
                "roughnessFactor" : 0.5
            }
        },
        {
            "doubleSided" : true,
            "emissiveFactor" : [
                1,
                1,
                1
            ],
            "emissiveTexture" : {
                "index" : 3
            },
            "name" : "m2mat",
            "pbrMetallicRoughness" : {
                "baseColorTexture" : {
                    "index" : 4
                },
                "metallicFactor" : 0,
                "roughnessFactor" : 0.5
            }
        },
        {
            "doubleSided" : true,
            "emissiveFactor" : [
                1,
                1,
                1
            ],
            "emissiveTexture" : {
                "index" : 5
            },
            "name" : "m3mat",
            "pbrMetallicRoughness" : {
                "baseColorTexture" : {
                    "index" : 6
                },
                "metallicFactor" : 0,
                "roughnessFactor" : 0.5
            }
        },
        {
            "doubleSided" : true,
            "name" : "m0mat",
            "pbrMetallicRoughness" : {
                "baseColorFactor" : [
                    0.8941180109977722,
                    0.8392159938812256,
                    0.6000000238418579,
                    1
                ],
                "metallicFactor" : 0,
                "roughnessFactor" : 0.5
            }
        }
    ],
    "meshes" : [
        {
            "name" : "meshId0_name",
            "primitives" : [
                {
                    "attributes" : {
                        "POSITION" : 0,
                        "NORMAL" : 1,
                        "TEXCOORD_0" : 2
                    },
                    "indices" : 3,
                    "material" : 0
                }
            ]
        },
        {
            "name" : "meshId1_name",
            "primitives" : [
                {
                    "attributes" : {
                        "POSITION" : 4,
                        "NORMAL" : 5,
                        "TEXCOORD_0" : 6
                    },
                    "indices" : 7,
                    "material" : 1
                }
            ]
        },
        {
            "name" : "meshId2_name",
            "primitives" : [
                {
                    "attributes" : {
                        "POSITION" : 8,
                        "NORMAL" : 9,
                        "TEXCOORD_0" : 10
                    },
                    "indices" : 11,
                    "material" : 2
                }
            ]
        },
        {
            "name" : "meshId3_name",
            "primitives" : [
                {
                    "attributes" : {
                        "POSITION" : 12,
                        "NORMAL" : 13,
                        "TEXCOORD_0" : 14
                    },
                    "indices" : 15,
                    "material" : 3
                }
            ]
        },
        {
            "name" : "meshId4_name",
            "primitives" : [
                {
                    "attributes" : {
                        "POSITION" : 16,
                        "NORMAL" : 17,
                        "TEXCOORD_0" : 18
                    },
                    "indices" : 19,
                    "material" : 4
                }
            ]
        }
    ],
    "textures" : [
        {
            "sampler" : 0,
            "source" : 0
        },
        {
            "sampler" : 0,
            "source" : 1
        },
        {
            "sampler" : 0,
            "source" : 2
        },
        {
            "sampler" : 0,
            "source" : 3
        },
        {
            "sampler" : 0,
            "source" : 4
        },
        {
            "sampler" : 0,
            "source" : 5
        },
        {
            "sampler" : 0,
            "source" : 6
        }
    ],
    "images" : [
        {
            "mimeType" : "image/png",
            "name" : "etc_build_lm",
            "uri" : "etc_build_lm.png"
        },
        {
            "mimeType" : "image/png",
            "name" : "etc_build",
            "uri" : "etc_build.png"
        },
        {
            "mimeType" : "image/png",
            "name" : "soundproofing",
            "uri" : "soundproofing.png"
        },
        {
            "mimeType" : "image/png",
            "name" : "gh_hangars4_lm",
            "uri" : "gh_hangars4_lm.png"
        },
        {
            "mimeType" : "image/png",
            "name" : "gh_hangars4",
            "uri" : "gh_hangars4.png"
        },
        {
            "mimeType" : "image/png",
            "name" : "sco_gen_checkershed_lm",
            "uri" : "sco_gen_checkershed_lm.png"
        },
        {
            "mimeType" : "image/png",
            "name" : "sco_gen_checkershed",
            "uri" : "sco_gen_checkershed.png"
        }
    ],
    "accessors" : [
        {
            "bufferView" : 0,
            "componentType" : 5126,
            "count" : 13437,
            "max" : [
                1296.675048828125,
                78.90941619873047,
                204.60699462890625
            ],
            "min" : [
                437.9032897949219,
                -0.0012199999764561653,
                -1883.4630126953125
            ],
            "type" : "VEC3"
        },
        {
            "bufferView" : 1,
            "componentType" : 5126,
            "count" : 13437,
            "type" : "VEC3"
        },
        {
            "bufferView" : 2,
            "componentType" : 5126,
            "count" : 13437,
            "type" : "VEC2"
        },
        {
            "bufferView" : 3,
            "componentType" : 5123,
            "count" : 17259,
            "type" : "SCALAR"
        },
        {
            "bufferView" : 4,
            "componentType" : 5126,
            "count" : 705,
            "max" : [
                614.9202880859375,
                6,
                124.3218002319336
            ],
            "min" : [
                437.9930114746094,
                0,
                -1314.1080322265625
            ],
            "type" : "VEC3"
        },
        {
            "bufferView" : 5,
            "componentType" : 5126,
            "count" : 705,
            "type" : "VEC3"
        },
        {
            "bufferView" : 6,
            "componentType" : 5126,
            "count" : 705,
            "type" : "VEC2"
        },
        {
            "bufferView" : 7,
            "componentType" : 5123,
            "count" : 1260,
            "type" : "SCALAR"
        },
        {
            "bufferView" : 8,
            "componentType" : 5126,
            "count" : 671,
            "max" : [
                649.3485717773438,
                30.166950225830078,
                -747.1702270507812
            ],
            "min" : [
                513.2841186523438,
                -4.999999873689376e-05,
                -1181.31396484375
            ],
            "type" : "VEC3"
        },
        {
            "bufferView" : 9,
            "componentType" : 5126,
            "count" : 671,
            "type" : "VEC3"
        },
        {
            "bufferView" : 10,
            "componentType" : 5126,
            "count" : 671,
            "type" : "VEC2"
        },
        {
            "bufferView" : 11,
            "componentType" : 5123,
            "count" : 864,
            "type" : "SCALAR"
        },
        {
            "bufferView" : 12,
            "componentType" : 5126,
            "count" : 694,
            "max" : [
                1125.0439453125,
                27.215368270874023,
                -1561.6251220703125
            ],
            "min" : [
                1111.738037109375,
                0.10068000108003616,
                -1575.0379638671875
            ],
            "type" : "VEC3"
        },
        {
            "bufferView" : 13,
            "componentType" : 5126,
            "count" : 694,
            "type" : "VEC3"
        },
        {
            "bufferView" : 14,
            "componentType" : 5126,
            "count" : 694,
            "type" : "VEC2"
        },
        {
            "bufferView" : 15,
            "componentType" : 5123,
            "count" : 696,
            "type" : "SCALAR"
        },
        {
            "bufferView" : 16,
            "componentType" : 5126,
            "count" : 19,
            "max" : [
                1169.490966796875,
                59.14313888549805,
                5.576019763946533
            ],
            "min" : [
                1151.998046875,
                59.14313888549805,
                -11.825719833374023
            ],
            "type" : "VEC3"
        },
        {
            "bufferView" : 17,
            "componentType" : 5126,
            "count" : 19,
            "type" : "VEC3"
        },
        {
            "bufferView" : 18,
            "componentType" : 5126,
            "count" : 19,
            "type" : "VEC2"
        },
        {
            "bufferView" : 19,
            "componentType" : 5123,
            "count" : 24,
            "type" : "SCALAR"
        }
    ],
    "bufferViews" : [
        {
            "buffer" : 0,
            "byteLength" : 161244,
            "byteOffset" : 0,
            "target" : 34962
        },
        {
            "buffer" : 0,
            "byteLength" : 161244,
            "byteOffset" : 161244,
            "target" : 34962
        },
        {
            "buffer" : 0,
            "byteLength" : 107496,
            "byteOffset" : 322488,
            "target" : 34962
        },
        {
            "buffer" : 0,
            "byteLength" : 34518,
            "byteOffset" : 429984,
            "target" : 34963
        },
        {
            "buffer" : 0,
            "byteLength" : 8460,
            "byteOffset" : 464504,
            "target" : 34962
        },
        {
            "buffer" : 0,
            "byteLength" : 8460,
            "byteOffset" : 472964,
            "target" : 34962
        },
        {
            "buffer" : 0,
            "byteLength" : 5640,
            "byteOffset" : 481424,
            "target" : 34962
        },
        {
            "buffer" : 0,
            "byteLength" : 2520,
            "byteOffset" : 487064,
            "target" : 34963
        },
        {
            "buffer" : 0,
            "byteLength" : 8052,
            "byteOffset" : 489584,
            "target" : 34962
        },
        {
            "buffer" : 0,
            "byteLength" : 8052,
            "byteOffset" : 497636,
            "target" : 34962
        },
        {
            "buffer" : 0,
            "byteLength" : 5368,
            "byteOffset" : 505688,
            "target" : 34962
        },
        {
            "buffer" : 0,
            "byteLength" : 1728,
            "byteOffset" : 511056,
            "target" : 34963
        },
        {
            "buffer" : 0,
            "byteLength" : 8328,
            "byteOffset" : 512784,
            "target" : 34962
        },
        {
            "buffer" : 0,
            "byteLength" : 8328,
            "byteOffset" : 521112,
            "target" : 34962
        },
        {
            "buffer" : 0,
            "byteLength" : 5552,
            "byteOffset" : 529440,
            "target" : 34962
        },
        {
            "buffer" : 0,
            "byteLength" : 1392,
            "byteOffset" : 534992,
            "target" : 34963
        },
        {
            "buffer" : 0,
            "byteLength" : 228,
            "byteOffset" : 536384,
            "target" : 34962
        },
        {
            "buffer" : 0,
            "byteLength" : 228,
            "byteOffset" : 536612,
            "target" : 34962
        },
        {
            "buffer" : 0,
            "byteLength" : 152,
            "byteOffset" : 536840,
            "target" : 34962
        },
        {
            "buffer" : 0,
            "byteLength" : 48,
            "byteOffset" : 536992,
            "target" : 34963
        }
    ],
    "samplers" : [
        {
            "magFilter" : 9729,
            "minFilter" : 9987
        }
    ],
    "buffers" : [
        {
            "byteLength" : 537040,
            "uri" : "military.bin"
        }
    ]
}
