{
	"asset":{
		"extensions":{
			"ASOBO_normal_map_convention":{
				"tangent_space_convention":"DirectX"
			}
		},
		"generator":"Khronos glTF Blender I/O v3.5.30 and Asobo Studio MSFS Blender I/O v1.3.0",
		"version":"2.0"
	},
	"extensionsUsed":[
		"ASOBO_normal_map_convention"
	],
	"scene":0,
	"scenes":[
		{
			"name":"Scene",
			"nodes":[
				1,
				2
			]
		}
	],
	"nodes":[
		{
			"mesh":0,
			"name":"node2"
		},
		{
			"children":[
				0
			],
			"name":"node0"
		},
		{
			"mesh":1,
			"name":"Text",
			"rotation":[
				0.7071068286895752,
				0,
				0,
				0.7071068286895752
			],
			"scale":[
				0.19098974764347076,
				0.19098974764347076,
				0.19098974764347076
			],
			"translation":[
				7.094110488891602,
				0.4764442443847656,
				209.49468994140625
			]
		}
	],
	"materials":[
		{
			"doubleSided":true,
			"emissiveFactor":[
				1,
				1,
				1
			],
			"emissiveTexture":{
				"index":0
			},
			"name":"m4mat",
			"pbrMetallicRoughness":{
				"baseColorTexture":{
					"index":1
				},
				"metallicFactor":0,
				"roughnessFactor":0.5
			}
		}
	],
	"meshes":[
		{
			"name":"meshId1_name",
			"primitives":[
				{
					"attributes":{
						"POSITION":0,
						"TEXCOORD_0":1,
						"NORMAL":2
					},
					"indices":3,
					"material":0
				}
			]
		},
		{
			"name":"Text",
			"primitives":[
				{
					"attributes":{
						"POSITION":4,
						"TEXCOORD_0":5,
						"NORMAL":6
					},
					"indices":7,
					"material":0
				}
			]
		}
	],
	"textures":[
		{
			"sampler":0,
			"source":0
		},
		{
			"sampler":0,
			"source":1
		}
	],
	"images":[
		{
			"mimeType":"image/png",
			"name":"international_tm_lm",
			"uri":"international_tm_lm.png"
		},
		{
			"mimeType":"image/png",
			"name":"international_tm",
			"uri":"international_tm.png"
		}
	],
	"accessors":[
		{
			"bufferView":0,
			"componentType":5126,
			"count":11782,
			"max":[
				84.596435546875,
				26.081287384033203,
				210.44073486328125
			],
			"min":[
				-30.84326171875,
				0,
				-110.2366943359375
			],
			"type":"VEC3"
		},
		{
			"bufferView":1,
			"componentType":5126,
			"count":11782,
			"type":"VEC2"
		},
		{
			"bufferView":2,
			"componentType":5126,
			"count":11782,
			"type":"VEC3"
		},
		{
			"bufferView":3,
			"componentType":5123,
			"count":24312,
			"type":"SCALAR"
		},
		{
			"bufferView":4,
			"componentType":5126,
			"count":446,
			"max":[
				5.627000331878662,
				0,
				0.23000000417232513
			],
			"min":[
				0.07500000298023224,
				0,
				-0.6820000410079956
			],
			"type":"VEC3"
		},
		{
			"bufferView":5,
			"componentType":5126,
			"count":446,
			"type":"VEC2"
		},
		{
			"bufferView":6,
			"componentType":5126,
			"count":446,
			"type":"VEC3"
		},
		{
			"bufferView":7,
			"componentType":5123,
			"count":1296,
			"type":"SCALAR"
		}
	],
	"bufferViews":[
		{
			"buffer":0,
			"byteLength":141384,
			"byteOffset":0,
			"target":34962
		},
		{
			"buffer":0,
			"byteLength":94256,
			"byteOffset":141384,
			"target":34962
		},
		{
			"buffer":0,
			"byteLength":141384,
			"byteOffset":235640,
			"target":34962
		},
		{
			"buffer":0,
			"byteLength":48624,
			"byteOffset":377024,
			"target":34963
		},
		{
			"buffer":0,
			"byteLength":5352,
			"byteOffset":425648,
			"target":34962
		},
		{
			"buffer":0,
			"byteLength":3568,
			"byteOffset":431000,
			"target":34962
		},
		{
			"buffer":0,
			"byteLength":5352,
			"byteOffset":434568,
			"target":34962
		},
		{
			"buffer":0,
			"byteLength":2592,
			"byteOffset":439920,
			"target":34963
		}
	],
	"samplers":[
		{
			"magFilter":9729,
			"minFilter":9987
		}
	],
	"buffers":[
		{
			"byteLength":442512,
			"uri":"international_terminal.bin"
		}
	]
}
