{
	"asset":{
		"extensions":{
			"ASOBO_normal_map_convention":{
				"tangent_space_convention":"DirectX"
			}
		},
		"generator":"Khronos glTF Blender I/O v3.5.30 and Asobo Studio MSFS Blender I/O v1.3.0",
		"version":"2.0"
	},
	"extensionsUsed":[
		"ASOBO_normal_map_convention",
		"ASOBO_unique_id",
		"KHR_materials_emissive_strength",
		"ASOBO_macro_light"
	],
	"scene":0,
	"scenes":[
		{
			"name":"Scene",
			"nodes":[
				4,
				5,
				6,
				7,
				8,
				9,
				10,
				11,
				12,
				13
			]
		}
	],
	"nodes":[
		{
			"extensions":{
				"ASOBO_unique_id":{
					"id":"emissive_panel"
				}
			},
			"mesh":0,
			"name":"emissive_panel",
			"rotation":[
				-0.5377975106239319,
				0.06524121016263962,
				-0.8388065099716187,
				0.05404776334762573
			],
			"translation":[
				6.3602118492126465,
				0.30269813537597656,
				0.7888794541358948
			]
		},
		{
			"extensions":{
				"ASOBO_unique_id":{
					"id":"Spot1"
				},
				"ASOBO_macro_light":{
					"color":[
						1,
						1,
						1
					],
					"intensity":1000,
					"cone_angle":360,
					"has_symmetry":true,
					"flash_frequency":0,
					"flash_duration":0,
					"flash_phase":0,
					"rotation_speed":0,
					"day_night_cycle":false
				}
			},
			"name":"Spot1",
			"rotation":[
				-0.19828079640865326,
				0,
				0,
				0.980145275592804
			],
			"translation":[
				6.363009929656982,
				0.41840171813964844,
				1.0553573369979858
			]
		},
		{
			"extensions":{
				"ASOBO_unique_id":{
					"id":"Spot2"
				},
				"ASOBO_macro_light":{
					"color":[
						1,
						1,
						1
					],
					"intensity":1000,
					"cone_angle":360,
					"has_symmetry":true,
					"flash_frequency":0,
					"flash_duration":0,
					"flash_phase":0,
					"rotation_speed":0,
					"day_night_cycle":false
				}
			},
			"name":"Spot2",
			"rotation":[
				-0.19917292892932892,
				0,
				0,
				0.9799644351005554
			],
			"translation":[
				7.1544036865234375,
				0.3365325927734375,
				1.0553573369979858
			]
		},
		{
			"extensions":{
				"ASOBO_unique_id":{
					"id":"Spot3"
				},
				"ASOBO_macro_light":{
					"color":[
						1,
						1,
						1
					],
					"intensity":1000,
					"cone_angle":360,
					"has_symmetry":true,
					"flash_frequency":0,
					"flash_duration":0,
					"flash_phase":0,
					"rotation_speed":0,
					"day_night_cycle":false
				}
			},
			"name":"Spot3",
			"rotation":[
				-0.19851286709308624,
				0,
				0,
				0.980098307132721
			],
			"translation":[
				5.568626403808594,
				0.3365325927734375,
				1.0553573369979858
			]
		},
		{
			"children":[
				0,
				1,
				2,
				3
			],
			"extensions":{
				"ASOBO_unique_id":{
					"id":"leadin"
				}
			},
			"name":"leadin",
			"translation":[
				-6.363009929656982,
				22.88721466064453,
				-0.7845888733863831
			]
		},
		{
			"extensions":{
				"ASOBO_unique_id":{
					"id":"light"
				}
			},
			"mesh":1,
			"name":"light",
			"rotation":[
				-0.5377975106239319,
				0.06524121016263962,
				-0.8388065099716187,
				0.05404776334762573
			],
			"translation":[
				-0.002797946333885193,
				23.189912796020508,
				0.004290580749511719
			]
		},
		{
			"extensions":{
				"ASOBO_unique_id":{
					"id":"pole"
				}
			},
			"mesh":2,
			"name":"pole"
		},
		{
			"extensions":{
				"ASOBO_unique_id":{
					"id":"top"
				}
			},
			"mesh":3,
			"name":"top",
			"translation":[
				0,
				-0.867211639881134,
				0
			]
		},
		{
			"extensions":{
				"ASOBO_unique_id":{
					"id":"light.001"
				}
			},
			"mesh":4,
			"name":"light.001",
			"rotation":[
				-0.5377975106239319,
				0.06524121016263962,
				-0.8388065099716187,
				0.05404776334762573
			],
			"translation":[
				-0.002797946333885193,
				23.189912796020508,
				-25.647789001464844
			]
		},
		{
			"extensions":{
				"ASOBO_unique_id":{
					"id":"pole.001"
				}
			},
			"mesh":5,
			"name":"pole.001",
			"translation":[
				0,
				0,
				-25.65207862854004
			]
		},
		{
			"extensions":{
				"ASOBO_unique_id":{
					"id":"top.001"
				}
			},
			"mesh":6,
			"name":"top.001",
			"translation":[
				0,
				-0.867211639881134,
				-25.65207862854004
			]
		},
		{
			"extensions":{
				"ASOBO_unique_id":{
					"id":"light.002"
				}
			},
			"mesh":7,
			"name":"light.002",
			"rotation":[
				-0.5377975106239319,
				0.06524121016263962,
				-0.8388065099716187,
				0.05404776334762573
			],
			"translation":[
				-0.002797946333885193,
				23.189912796020508,
				-51.368465423583984
			]
		},
		{
			"extensions":{
				"ASOBO_unique_id":{
					"id":"pole.002"
				}
			},
			"mesh":8,
			"name":"pole.002",
			"translation":[
				0,
				0,
				-51.37275695800781
			]
		},
		{
			"extensions":{
				"ASOBO_unique_id":{
					"id":"top.002"
				}
			},
			"mesh":9,
			"name":"top.002",
			"translation":[
				0,
				-0.867211639881134,
				-51.37275695800781
			]
		}
	],
	"animations":[
		{
			"channels":[
				{
					"sampler":0,
					"target":{
						"node":4,
						"path":"translation"
					}
				}
			],
			"name":"leadin",
			"samplers":[
				{
					"input":34,
					"interpolation":"STEP",
					"output":35
				}
			]
		},
		{
			"channels":[
				{
					"sampler":0,
					"target":{
						"node":1,
						"path":"translation"
					}
				}
			],
			"name":"PointAction",
			"samplers":[
				{
					"input":36,
					"interpolation":"STEP",
					"output":37
				}
			]
		}
	],
	"materials":[
		{
			"doubleSided":true,
			"emissiveFactor":[
				1000,
				1000,
				1000
			],
			"extensions":{
				"KHR_materials_emissive_strength":{
					"emissiveStrength":1000
				}
			},
			"name":"emissive_mat",
			"pbrMetallicRoughness":{
				"baseColorFactor":[
					0.800000011920929,
					0.800000011920929,
					0.800000011920929,
					1
				],
				"metallicFactor":0,
				"roughnessFactor":0.5
			}
		},
		{
			"doubleSided":true,
			"name":"m1mat",
			"pbrMetallicRoughness":{
				"baseColorFactor":[
					0.9215689897537231,
					0.9215689897537231,
					0.9215689897537231,
					1
				],
				"metallicFactor":0,
				"roughnessFactor":0.5
			}
		}
	],
	"meshes":[
		{
			"name":"meshId2_name.001",
			"primitives":[
				{
					"attributes":{
						"POSITION":0,
						"TEXCOORD_0":1,
						"NORMAL":2
					},
					"indices":3,
					"material":0
				}
			]
		},
		{
			"name":"meshId2_name",
			"primitives":[
				{
					"attributes":{
						"POSITION":4,
						"TEXCOORD_0":5,
						"NORMAL":6
					},
					"indices":7
				}
			]
		},
		{
			"name":"meshId1_name",
			"primitives":[
				{
					"attributes":{
						"POSITION":8,
						"TEXCOORD_0":9,
						"NORMAL":10
					},
					"indices":11,
					"material":1
				}
			]
		},
		{
			"name":"Circle",
			"primitives":[
				{
					"attributes":{
						"POSITION":12,
						"TEXCOORD_0":13,
						"NORMAL":14
					},
					"indices":15
				}
			]
		},
		{
			"name":"meshId2_name.003",
			"primitives":[
				{
					"attributes":{
						"POSITION":16,
						"TEXCOORD_0":17,
						"NORMAL":18
					},
					"indices":7
				}
			]
		},
		{
			"name":"meshId1_name.001",
			"primitives":[
				{
					"attributes":{
						"POSITION":19,
						"TEXCOORD_0":20,
						"NORMAL":21
					},
					"indices":11,
					"material":1
				}
			]
		},
		{
			"name":"Circle.001",
			"primitives":[
				{
					"attributes":{
						"POSITION":22,
						"TEXCOORD_0":23,
						"NORMAL":24
					},
					"indices":15
				}
			]
		},
		{
			"name":"meshId2_name.004",
			"primitives":[
				{
					"attributes":{
						"POSITION":25,
						"TEXCOORD_0":26,
						"NORMAL":27
					},
					"indices":7
				}
			]
		},
		{
			"name":"meshId1_name.002",
			"primitives":[
				{
					"attributes":{
						"POSITION":28,
						"TEXCOORD_0":29,
						"NORMAL":30
					},
					"indices":11,
					"material":1
				}
			]
		},
		{
			"name":"Circle.002",
			"primitives":[
				{
					"attributes":{
						"POSITION":31,
						"TEXCOORD_0":32,
						"NORMAL":33
					},
					"indices":15
				}
			]
		}
	],
	"accessors":[
		{
			"bufferView":0,
			"componentType":5126,
			"count":12,
			"max":[
				0.5833831429481506,
				0.05922256037592888,
				0.9726370573043823
			],
			"min":[
				-0.43400049209594727,
				-0.13104093074798584,
				-0.903941810131073
			],
			"type":"VEC3"
		},
		{
			"bufferView":1,
			"componentType":5126,
			"count":12,
			"type":"VEC2"
		},
		{
			"bufferView":2,
			"componentType":5126,
			"count":12,
			"type":"VEC3"
		},
		{
			"bufferView":3,
			"componentType":5123,
			"count":18,
			"type":"SCALAR"
		},
		{
			"bufferView":4,
			"componentType":5126,
			"count":135,
			"max":[
				0.5484809875488281,
				0.09532184898853302,
				0.9565329551696777
			],
			"min":[
				-0.4875660836696625,
				-0.12450692057609558,
				-0.9291819930076599
			],
			"type":"VEC3"
		},
		{
			"bufferView":5,
			"componentType":5126,
			"count":135,
			"type":"VEC2"
		},
		{
			"bufferView":6,
			"componentType":5126,
			"count":135,
			"type":"VEC3"
		},
		{
			"bufferView":7,
			"componentType":5123,
			"count":144,
			"type":"SCALAR"
		},
		{
			"bufferView":8,
			"componentType":5126,
			"count":12,
			"max":[
				0.3198833465576172,
				23.007400512695312,
				0.28210318088531494
			],
			"min":[
				-0.3148212432861328,
				-0.03553000092506409,
				-0.2881668210029602
			],
			"type":"VEC3"
		},
		{
			"bufferView":9,
			"componentType":5126,
			"count":12,
			"type":"VEC2"
		},
		{
			"bufferView":10,
			"componentType":5126,
			"count":12,
			"type":"VEC3"
		},
		{
			"bufferView":11,
			"componentType":5123,
			"count":36,
			"type":"SCALAR"
		},
		{
			"bufferView":12,
			"componentType":5126,
			"count":120,
			"max":[
				0.9970277547836304,
				23.946805953979492,
				0.3535112738609314
			],
			"min":[
				-1.0029722452163696,
				23.235198974609375,
				-0.3535112738609314
			],
			"type":"VEC3"
		},
		{
			"bufferView":13,
			"componentType":5126,
			"count":120,
			"type":"VEC2"
		},
		{
			"bufferView":14,
			"componentType":5126,
			"count":120,
			"type":"VEC3"
		},
		{
			"bufferView":15,
			"componentType":5123,
			"count":216,
			"type":"SCALAR"
		},
		{
			"bufferView":16,
			"componentType":5126,
			"count":135,
			"max":[
				0.5484809875488281,
				0.09532184898853302,
				0.9565329551696777
			],
			"min":[
				-0.4875660836696625,
				-0.12450692057609558,
				-0.9291819930076599
			],
			"type":"VEC3"
		},
		{
			"bufferView":17,
			"componentType":5126,
			"count":135,
			"type":"VEC2"
		},
		{
			"bufferView":18,
			"componentType":5126,
			"count":135,
			"type":"VEC3"
		},
		{
			"bufferView":19,
			"componentType":5126,
			"count":12,
			"max":[
				0.3198833465576172,
				23.007400512695312,
				0.28210318088531494
			],
			"min":[
				-0.3148212432861328,
				-0.03553000092506409,
				-0.2881668210029602
			],
			"type":"VEC3"
		},
		{
			"bufferView":20,
			"componentType":5126,
			"count":12,
			"type":"VEC2"
		},
		{
			"bufferView":21,
			"componentType":5126,
			"count":12,
			"type":"VEC3"
		},
		{
			"bufferView":22,
			"componentType":5126,
			"count":120,
			"max":[
				0.9970277547836304,
				23.946805953979492,
				0.3535112738609314
			],
			"min":[
				-1.0029722452163696,
				23.235198974609375,
				-0.3535112738609314
			],
			"type":"VEC3"
		},
		{
			"bufferView":23,
			"componentType":5126,
			"count":120,
			"type":"VEC2"
		},
		{
			"bufferView":24,
			"componentType":5126,
			"count":120,
			"type":"VEC3"
		},
		{
			"bufferView":25,
			"componentType":5126,
			"count":135,
			"max":[
				0.5484809875488281,
				0.09532184898853302,
				0.9565329551696777
			],
			"min":[
				-0.4875660836696625,
				-0.12450692057609558,
				-0.9291819930076599
			],
			"type":"VEC3"
		},
		{
			"bufferView":26,
			"componentType":5126,
			"count":135,
			"type":"VEC2"
		},
		{
			"bufferView":27,
			"componentType":5126,
			"count":135,
			"type":"VEC3"
		},
		{
			"bufferView":28,
			"componentType":5126,
			"count":12,
			"max":[
				0.3198833465576172,
				23.007400512695312,
				0.28210318088531494
			],
			"min":[
				-0.3148212432861328,
				-0.03553000092506409,
				-0.2881668210029602
			],
			"type":"VEC3"
		},
		{
			"bufferView":29,
			"componentType":5126,
			"count":12,
			"type":"VEC2"
		},
		{
			"bufferView":30,
			"componentType":5126,
			"count":12,
			"type":"VEC3"
		},
		{
			"bufferView":31,
			"componentType":5126,
			"count":120,
			"max":[
				0.9970277547836304,
				23.946805953979492,
				0.3535112738609314
			],
			"min":[
				-1.0029722452163696,
				23.235198974609375,
				-0.3535112738609314
			],
			"type":"VEC3"
		},
		{
			"bufferView":32,
			"componentType":5126,
			"count":120,
			"type":"VEC2"
		},
		{
			"bufferView":33,
			"componentType":5126,
			"count":120,
			"type":"VEC3"
		},
		{
			"bufferView":34,
			"componentType":5126,
			"count":19,
			"max":[
				0.75
			],
			"min":[
				0
			],
			"type":"SCALAR"
		},
		{
			"bufferView":35,
			"componentType":5126,
			"count":19,
			"type":"VEC3"
		},
		{
			"bufferView":36,
			"componentType":5126,
			"count":1,
			"max":[
				0
			],
			"min":[
				0
			],
			"type":"SCALAR"
		},
		{
			"bufferView":37,
			"componentType":5126,
			"count":1,
			"type":"VEC3"
		}
	],
	"bufferViews":[
		{
			"buffer":0,
			"byteLength":144,
			"byteOffset":0,
			"target":34962
		},
		{
			"buffer":0,
			"byteLength":96,
			"byteOffset":144,
			"target":34962
		},
		{
			"buffer":0,
			"byteLength":144,
			"byteOffset":240,
			"target":34962
		},
		{
			"buffer":0,
			"byteLength":36,
			"byteOffset":384,
			"target":34963
		},
		{
			"buffer":0,
			"byteLength":1620,
			"byteOffset":420,
			"target":34962
		},
		{
			"buffer":0,
			"byteLength":1080,
			"byteOffset":2040,
			"target":34962
		},
		{
			"buffer":0,
			"byteLength":1620,
			"byteOffset":3120,
			"target":34962
		},
		{
			"buffer":0,
			"byteLength":288,
			"byteOffset":4740,
			"target":34963
		},
		{
			"buffer":0,
			"byteLength":144,
			"byteOffset":5028,
			"target":34962
		},
		{
			"buffer":0,
			"byteLength":96,
			"byteOffset":5172,
			"target":34962
		},
		{
			"buffer":0,
			"byteLength":144,
			"byteOffset":5268,
			"target":34962
		},
		{
			"buffer":0,
			"byteLength":72,
			"byteOffset":5412,
			"target":34963
		},
		{
			"buffer":0,
			"byteLength":1440,
			"byteOffset":5484,
			"target":34962
		},
		{
			"buffer":0,
			"byteLength":960,
			"byteOffset":6924,
			"target":34962
		},
		{
			"buffer":0,
			"byteLength":1440,
			"byteOffset":7884,
			"target":34962
		},
		{
			"buffer":0,
			"byteLength":432,
			"byteOffset":9324,
			"target":34963
		},
		{
			"buffer":0,
			"byteLength":1620,
			"byteOffset":9756,
			"target":34962
		},
		{
			"buffer":0,
			"byteLength":1080,
			"byteOffset":11376,
			"target":34962
		},
		{
			"buffer":0,
			"byteLength":1620,
			"byteOffset":12456,
			"target":34962
		},
		{
			"buffer":0,
			"byteLength":144,
			"byteOffset":14076,
			"target":34962
		},
		{
			"buffer":0,
			"byteLength":96,
			"byteOffset":14220,
			"target":34962
		},
		{
			"buffer":0,
			"byteLength":144,
			"byteOffset":14316,
			"target":34962
		},
		{
			"buffer":0,
			"byteLength":1440,
			"byteOffset":14460,
			"target":34962
		},
		{
			"buffer":0,
			"byteLength":960,
			"byteOffset":15900,
			"target":34962
		},
		{
			"buffer":0,
			"byteLength":1440,
			"byteOffset":16860,
			"target":34962
		},
		{
			"buffer":0,
			"byteLength":1620,
			"byteOffset":18300,
			"target":34962
		},
		{
			"buffer":0,
			"byteLength":1080,
			"byteOffset":19920,
			"target":34962
		},
		{
			"buffer":0,
			"byteLength":1620,
			"byteOffset":21000,
			"target":34962
		},
		{
			"buffer":0,
			"byteLength":144,
			"byteOffset":22620,
			"target":34962
		},
		{
			"buffer":0,
			"byteLength":96,
			"byteOffset":22764,
			"target":34962
		},
		{
			"buffer":0,
			"byteLength":144,
			"byteOffset":22860,
			"target":34962
		},
		{
			"buffer":0,
			"byteLength":1440,
			"byteOffset":23004,
			"target":34962
		},
		{
			"buffer":0,
			"byteLength":960,
			"byteOffset":24444,
			"target":34962
		},
		{
			"buffer":0,
			"byteLength":1440,
			"byteOffset":25404,
			"target":34962
		},
		{
			"buffer":0,
			"byteLength":76,
			"byteOffset":26844
		},
		{
			"buffer":0,
			"byteLength":228,
			"byteOffset":26920
		},
		{
			"buffer":0,
			"byteLength":4,
			"byteOffset":27148
		},
		{
			"buffer":0,
			"byteLength":12,
			"byteOffset":27152
		}
	],
	"buffers":[
		{
			"byteLength":27164,
			"uri":"leadin.bin"
		}
	]
}
